# xmcd
#
# Track frame offsets: 
#        150
#        18832
#        37782
#        52727
#        70680
#        88585
#        104595
#        133200
#
# Disc length: 3522 seconds
#
# Revision: 0
# Processed by: cddbd v1.4PL0 Copyright (c) Steve Scherf et al.
# Submitted via: ExactAudioCopy v0.90a11
#
DISCID=5c0dc008
DTITLE=Brent McAthey - Believe in Me
DYEAR=1900
DGENRE=
TTITLE0=Chevy Blue Eyes
TTITLE1=Slow Motion
TTITLE2=Hard Rockabilly Cafe
TTITLE3=I Don't Love Easy
TTITLE4=Believe in me
TTITLE5=You Changed the Locks
TTITLE6=Road to Recovery
TTITLE7=Data
EXTD=
EXTT0=
EXTT1=
EXTT2=
EXTT3=
EXTT4=
EXTT5=
EXTT6=
EXTT7=
PLAYORDER=
